<svg width="515" height="512" viewBox="0 0 515 512" fill="none" xmlns="http://www.w3.org/2000/svg">
<g filter="url(#filter0_d_1296_155)">
<path d="M480.03 359.385L481.097 361.899L483.734 362.621L503.521 368.037C503.695 368.102 503.851 368.217 503.963 368.364C504.085 368.526 504.105 368.657 504.105 368.711V387.784C504.105 387.838 504.085 387.966 503.963 388.129C503.851 388.278 503.695 388.393 503.521 388.456L483.734 393.871L480.975 394.627L479.956 397.297C477.375 404.044 476.144 406.944 473.458 413.278L473.115 414.085L472.025 416.654L473.406 419.079L483.675 437.105L483.745 437.224L483.804 437.319C483.806 437.333 483.806 437.357 483.801 437.398C483.786 437.508 483.722 437.689 483.54 437.872L470.126 451.285L470.02 451.389L469.921 451.499C469.914 451.508 469.894 451.535 469.81 451.547C469.72 451.558 469.576 451.547 469.409 451.45L469.384 451.436L469.359 451.42L451.336 441.151L449.019 439.832L446.529 440.783C439.593 443.436 436.54 444.731 430.179 447.43L429.365 447.776L426.848 448.842L426.128 451.479L420.679 471.391L420.647 471.499L420.622 471.609C420.62 471.616 420.613 471.652 420.541 471.709C420.458 471.77 420.293 471.851 420.038 471.851H400.966C400.912 471.851 400.781 471.831 400.621 471.709C400.472 471.596 400.357 471.44 400.291 471.267L394.876 451.479L394.122 448.721L391.452 447.699C384.706 445.121 381.805 443.889 375.474 441.203L374.662 440.86L372.093 439.768L369.668 441.151L351.645 451.42L351.525 451.488L351.43 451.549C351.417 451.551 351.392 451.551 351.351 451.547C351.239 451.531 351.058 451.466 350.878 451.285L337.464 437.872L337.358 437.766L337.248 437.666C337.241 437.66 337.214 437.637 337.203 437.554C337.191 437.466 337.203 437.321 337.299 437.154L337.313 437.13L337.329 437.105L347.598 419.079L348.918 416.765L347.966 414.275C345.313 407.339 344.019 404.285 341.319 397.924L340.974 397.108L339.907 394.593L337.27 393.871L317.359 388.422L317.25 388.393L317.138 388.368C317.131 388.366 317.097 388.359 317.041 388.287C316.98 388.203 316.898 388.038 316.898 387.784V368.711C316.898 368.657 316.919 368.526 317.041 368.364C317.153 368.217 317.309 368.102 317.483 368.037L337.27 362.621L340.029 361.868L341.048 359.197C343.628 352.451 344.86 349.548 347.546 343.217C347.659 342.953 347.772 342.685 347.889 342.407L348.979 339.838L347.598 337.414L337.329 319.39L337.259 319.27L337.2 319.176C337.198 319.162 337.198 319.135 337.203 319.097C337.218 318.984 337.281 318.803 337.464 318.623L350.878 305.21L350.984 305.103L351.081 304.993H351.083C351.09 304.984 351.112 304.959 351.193 304.948C351.284 304.934 351.428 304.948 351.595 305.045L351.62 305.058L351.645 305.072L369.668 315.343L371.985 316.663L374.475 315.711C381.41 313.059 384.464 311.762 390.825 309.064C391.091 308.951 391.362 308.836 391.639 308.717L394.156 307.65L394.876 305.016L400.325 285.104L400.357 284.993L400.382 284.883C400.384 284.874 400.391 284.84 400.463 284.786C400.546 284.723 400.711 284.644 400.966 284.644H420.038C420.092 284.644 420.223 284.664 420.383 284.786C420.532 284.899 420.647 285.052 420.713 285.228L426.128 305.016L426.881 307.774L429.552 308.793C436.298 311.374 439.201 312.605 445.532 315.292L446.342 315.634L448.911 316.724L451.336 315.343L469.359 305.072L469.479 305.004L469.574 304.946C469.587 304.943 469.612 304.943 469.653 304.948C469.765 304.964 469.946 305.027 470.126 305.21L483.54 318.623L483.646 318.727L483.756 318.826V318.828C483.765 318.835 483.79 318.858 483.801 318.939C483.813 319.029 483.801 319.173 483.704 319.34L483.691 319.365L483.675 319.39L473.406 337.414L472.086 339.73L473.038 342.22C475.691 349.156 476.985 352.21 479.685 358.57L480.03 359.385ZM337.203 319.189C337.203 319.189 337.2 319.187 337.2 319.182C337.203 319.187 337.203 319.187 337.203 319.189ZM469.56 304.948C469.56 304.948 469.562 304.946 469.567 304.946C469.562 304.946 469.562 304.948 469.56 304.948ZM360.533 378.351C360.533 405.778 382.761 428.006 410.188 428.006C437.615 428.006 459.841 405.778 459.841 378.351C459.841 350.924 437.615 328.698 410.188 328.698C382.761 328.698 360.533 350.924 360.533 378.351Z" fill="url(#paint0_linear_1296_155)"/>
<path d="M351.444 451.547C351.444 451.547 351.442 451.547 351.437 451.549M480.03 359.385L481.097 361.899L483.734 362.621L503.521 368.037C503.695 368.102 503.851 368.217 503.963 368.364C504.085 368.526 504.105 368.657 504.105 368.711V387.784C504.105 387.838 504.085 387.966 503.963 388.129C503.851 388.278 503.695 388.393 503.521 388.456L483.734 393.871L480.975 394.627L479.956 397.297C477.375 404.044 476.144 406.944 473.458 413.278L473.115 414.085L472.025 416.654L473.406 419.079L483.675 437.105L483.745 437.224L483.804 437.319C483.806 437.333 483.806 437.357 483.801 437.398C483.786 437.508 483.722 437.689 483.54 437.872L470.126 451.285L470.02 451.389L469.921 451.499C469.914 451.508 469.894 451.535 469.81 451.547C469.72 451.558 469.576 451.547 469.409 451.45L469.384 451.436L469.359 451.42L451.336 441.151L449.019 439.832L446.529 440.783C439.593 443.436 436.54 444.731 430.179 447.43L429.365 447.776L426.848 448.842L426.128 451.479L420.679 471.391L420.647 471.499L420.622 471.609C420.62 471.616 420.613 471.652 420.541 471.709C420.458 471.77 420.293 471.851 420.038 471.851H400.966C400.912 471.851 400.781 471.831 400.621 471.709C400.472 471.596 400.357 471.44 400.291 471.267L394.876 451.479L394.122 448.721L391.452 447.699C384.706 445.121 381.805 443.889 375.474 441.203L374.662 440.86L372.093 439.768L369.668 441.151L351.645 451.42L351.525 451.488L351.43 451.549C351.417 451.551 351.392 451.551 351.351 451.547C351.239 451.531 351.058 451.466 350.878 451.285L337.464 437.872L337.358 437.766L337.248 437.666C337.241 437.66 337.214 437.637 337.203 437.554C337.191 437.466 337.203 437.321 337.299 437.154L337.313 437.13L337.329 437.105L347.598 419.079L348.918 416.765L347.966 414.275C345.313 407.339 344.019 404.285 341.319 397.924L340.974 397.108L339.907 394.593L337.27 393.871L317.359 388.422L317.25 388.393L317.138 388.368C317.131 388.366 317.097 388.359 317.041 388.287C316.98 388.203 316.898 388.038 316.898 387.784V368.711C316.898 368.657 316.919 368.526 317.041 368.364C317.153 368.217 317.309 368.102 317.483 368.037L337.27 362.621L340.029 361.868L341.048 359.197C343.628 352.451 344.86 349.548 347.546 343.217C347.659 342.953 347.772 342.685 347.889 342.407L348.979 339.838L347.598 337.414L337.329 319.39L337.259 319.27L337.2 319.176C337.198 319.162 337.198 319.135 337.203 319.097C337.218 318.984 337.281 318.803 337.464 318.623L350.878 305.21L350.984 305.103L351.081 304.993H351.083C351.09 304.984 351.112 304.959 351.193 304.948C351.284 304.934 351.428 304.948 351.595 305.045L351.62 305.058L351.645 305.072L369.668 315.343L371.985 316.663L374.475 315.711C381.41 313.059 384.464 311.762 390.825 309.064C391.091 308.951 391.362 308.836 391.639 308.717L394.156 307.65L394.876 305.016L400.325 285.104L400.357 284.993L400.382 284.883C400.384 284.874 400.391 284.84 400.463 284.786C400.546 284.723 400.711 284.644 400.966 284.644H420.038C420.092 284.644 420.223 284.664 420.383 284.786C420.532 284.899 420.647 285.052 420.713 285.228L426.128 305.016L426.881 307.774L429.552 308.793C436.298 311.374 439.201 312.605 445.532 315.292L446.342 315.634L448.911 316.724L451.336 315.343L469.359 305.072L469.479 305.004L469.574 304.946C469.587 304.943 469.612 304.943 469.653 304.948C469.765 304.964 469.946 305.027 470.126 305.21L483.54 318.623L483.646 318.727L483.756 318.826V318.828C483.765 318.835 483.79 318.858 483.801 318.939C483.813 319.029 483.801 319.173 483.704 319.34L483.691 319.365L483.675 319.39L473.406 337.414L472.086 339.73L473.038 342.22C475.691 349.156 476.985 352.21 479.685 358.57L480.03 359.385ZM337.203 319.189C337.203 319.189 337.2 319.187 337.2 319.182C337.203 319.187 337.203 319.187 337.203 319.189ZM469.56 304.948C469.56 304.948 469.562 304.946 469.567 304.946C469.562 304.946 469.562 304.948 469.56 304.948ZM360.533 378.351C360.533 405.778 382.761 428.006 410.188 428.006C437.615 428.006 459.841 405.778 459.841 378.351C459.841 350.924 437.615 328.698 410.188 328.698C382.761 328.698 360.533 350.924 360.533 378.351Z" stroke="black" stroke-width="7"/>
</g>
<g filter="url(#filter1_d_1296_155)">
<path d="M294.213 69.0875L417.019 191.894L169.812 439.101C138.983 469.929 88.9988 469.929 58.1699 439.101L47.0056 427.936C16.1765 397.108 16.1765 347.123 47.0056 316.295L294.213 69.0875Z" fill="url(#paint1_linear_1296_155)"/>
<path d="M294.213 69.0875L417.019 191.894L169.812 439.101C138.983 469.929 88.9988 469.929 58.1699 439.101L47.0056 427.936C16.1765 397.108 16.1765 347.123 47.0056 316.295L294.213 69.0875Z" stroke="black" stroke-width="10"/>
</g>
<path d="M46.9367 315.745L106.488 256.193L317.544 290.749L169.743 438.551C138.914 469.379 88.9301 469.379 58.101 438.551L46.9367 427.386C16.1077 396.558 16.1077 346.573 46.9367 315.745Z" fill="url(#paint2_linear_1296_155)" stroke="black" stroke-width="10"/>
<path d="M92.2805 346.354C98.8866 352.96 109.598 352.96 116.204 346.354C122.81 339.747 122.81 329.036 116.204 322.432L92.2805 346.354ZM56.1924 310.266L92.2805 346.354L116.204 322.432L80.1156 286.344L56.1924 310.266Z" fill="black"/>
<path d="M119.346 289.966C125.952 296.572 136.663 296.572 143.269 289.966C149.875 283.36 149.875 272.648 143.269 266.044L119.346 289.966ZM96.791 267.411L119.346 289.966L143.269 266.044L120.714 243.489L96.791 267.411Z" fill="black"/>
<path d="M207.311 199.746C213.918 206.352 224.629 206.352 231.234 199.746C237.84 193.14 237.84 182.429 231.234 175.823L207.311 199.746ZM184.756 177.191L207.311 199.746L231.234 175.823L208.68 153.267L184.756 177.191Z" fill="black"/>
<path d="M175.735 262.9C182.341 269.506 193.052 269.506 199.658 262.9C206.264 256.294 206.264 245.582 199.658 238.978L175.735 262.9ZM139.646 226.812L175.735 262.9L199.658 238.978L163.57 202.889L139.646 226.812Z" fill="black"/>
<path d="M265.954 172.68C272.561 179.286 283.27 179.286 289.876 172.68C296.483 166.074 296.483 155.363 289.876 148.757L265.954 172.68ZM229.866 136.592L265.954 172.68L289.876 148.757L253.788 112.668L229.866 136.592Z" fill="black"/>
<g filter="url(#filter2_d_1296_155)">
<path d="M452.981 161.069L329.327 37.4155C320.113 28.2007 305.173 28.2007 295.958 37.4155C286.743 46.6303 286.743 61.5704 295.958 70.7852L419.611 194.439C428.826 203.654 443.766 203.654 452.981 194.439C462.196 185.224 462.196 170.284 452.981 161.069Z" fill="url(#paint3_linear_1296_155)"/>
<path d="M452.981 161.069L329.327 37.4155C320.113 28.2007 305.173 28.2007 295.958 37.4155C286.743 46.6303 286.743 61.5704 295.958 70.7852L419.611 194.439C428.826 203.654 443.766 203.654 452.981 194.439C462.196 185.224 462.196 170.284 452.981 161.069Z" stroke="black" stroke-width="10"/>
</g>
<defs>
<filter id="filter0_d_1296_155" x="310.398" y="278.144" width="204.207" height="204.207" filterUnits="userSpaceOnUse" color-interpolation-filters="sRGB">
<feFlood flood-opacity="0" result="BackgroundImageFix"/>
<feColorMatrix in="SourceAlpha" type="matrix" values="0 0 0 0 0 0 0 0 0 0 0 0 0 0 0 0 0 0 127 0" result="hardAlpha"/>
<feOffset dx="2" dy="2"/>
<feGaussianBlur stdDeviation="2.5"/>
<feComposite in2="hardAlpha" operator="out"/>
<feColorMatrix type="matrix" values="0 0 0 0 1 0 0 0 0 1 0 0 0 0 1 0 0 0 1 0"/>
<feBlend mode="normal" in2="BackgroundImageFix" result="effect1_dropShadow_1296_155"/>
<feBlend mode="normal" in="SourceGraphic" in2="effect1_dropShadow_1296_155" result="shape"/>
</filter>
<filter id="filter1_d_1296_155" x="14.8838" y="62.0165" width="413.206" height="413.205" filterUnits="userSpaceOnUse" color-interpolation-filters="sRGB">
<feFlood flood-opacity="0" result="BackgroundImageFix"/>
<feColorMatrix in="SourceAlpha" type="matrix" values="0 0 0 0 0 0 0 0 0 0 0 0 0 0 0 0 0 0 127 0" result="hardAlpha"/>
<feOffset dy="4"/>
<feGaussianBlur stdDeviation="2"/>
<feComposite in2="hardAlpha" operator="out"/>
<feColorMatrix type="matrix" values="0 0 0 0 1 0 0 0 0 1 0 0 0 0 1 0 0 0 1 0"/>
<feBlend mode="normal" in2="BackgroundImageFix" result="effect1_dropShadow_1296_155"/>
<feBlend mode="normal" in="SourceGraphic" in2="effect1_dropShadow_1296_155" result="shape"/>
</filter>
<filter id="filter2_d_1296_155" x="280.046" y="17.5044" width="188.846" height="188.845" filterUnits="userSpaceOnUse" color-interpolation-filters="sRGB">
<feFlood flood-opacity="0" result="BackgroundImageFix"/>
<feColorMatrix in="SourceAlpha" type="matrix" values="0 0 0 0 0 0 0 0 0 0 0 0 0 0 0 0 0 0 127 0" result="hardAlpha"/>
<feOffset dy="-4"/>
<feGaussianBlur stdDeviation="2"/>
<feComposite in2="hardAlpha" operator="out"/>
<feColorMatrix type="matrix" values="0 0 0 0 1 0 0 0 0 1 0 0 0 0 1 0 0 0 1 0"/>
<feBlend mode="normal" in2="BackgroundImageFix" result="effect1_dropShadow_1296_155"/>
<feBlend mode="normal" in="SourceGraphic" in2="effect1_dropShadow_1296_155" result="shape"/>
</filter>
<linearGradient id="paint0_linear_1296_155" x1="410.502" y1="377.368" x2="477.249" y2="444.995" gradientUnits="userSpaceOnUse">
<stop stop-color="#44BC4F"/>
<stop offset="1" stop-color="#1F5624"/>
</linearGradient>
<linearGradient id="paint1_linear_1296_155" x1="337.176" y1="215.467" x2="369.881" y2="248.172" gradientUnits="userSpaceOnUse">
<stop stop-color="white"/>
<stop offset="1" stop-color="#999999"/>
</linearGradient>
<linearGradient id="paint2_linear_1296_155" x1="157.864" y1="388.014" x2="192.824" y2="425.23" gradientUnits="userSpaceOnUse">
<stop stop-color="#44BC4F"/>
<stop offset="1" stop-color="#1F5624"/>
</linearGradient>
<linearGradient id="paint3_linear_1296_155" x1="430.852" y1="166.455" x2="472.141" y2="207.179" gradientUnits="userSpaceOnUse">
<stop stop-color="white"/>
<stop offset="1" stop-color="#737373"/>
</linearGradient>
</defs>
</svg>
